<svg width="800" height="400" xmlns="http://www.w3.org/2000/svg">\n<rect width="100%" height="100%" fill="white"/>\n<text x="400.0" y="25" font-family="Arial" font-size="16" font-weight="bold" text-anchor="middle">Car Prices across Scenarios</text>\n<text x="15" y="200.0" font-family="Arial" font-size="12" transform="rotate(-90 15,200.0)" text-anchor="middle">Car Price ($)</text>\n<line x1="60" y1="40" x2="60" y2="300" stroke="black" stroke-width="1"/>\n<line x1="60" y1="300.0" x2="780" y2="300.0" stroke="black" stroke-width="1"/>\n<text x="120.0" y="320" font-family="Arial" font-size="12" text-anchor="end" transform="rotate(-45 120.0,320)">Small Petrol</text>\n<rect x="72.0" y="202.30779186818353" width="31.0" height="97.69220813181647" fill="#4F81BD"><title>Small Petrol: 28450.00</title></rect>\n<rect x="104.0" y="204.17745344856024" width="31.0" height="95.82254655143976" fill="#C0504D"><title>Small Petrol: 27905.52</title></rect>\n<rect x="136.0" y="204.9591075362033" width="31.0" height="95.0408924637967" fill="#9BBB59"><title>Small Petrol: 27677.88</title></rect>\n<text x="240.0" y="320" font-family="Arial" font-size="12" text-anchor="end" transform="rotate(-45 240.0,320)">Medium Petrol</text>\n<rect x="192.0" y="173.40875413049048" width="31.0" height="126.59124586950952" fill="#4F81BD"><title>Medium Petrol: 36866.00</title></rect>\n<rect x="224.0" y="174.31181308167845" width="31.0" height="125.68818691832155" fill="#C0504D"><title>Medium Petrol: 36603.01</title></rect>\n<rect x="256.0" y="176.8443746372468" width="31.0" height="123.1556253627532" fill="#9BBB59"><title>Medium Petrol: 35865.48</title></rect>\n<text x="360.0" y="320" font-family="Arial" font-size="12" text-anchor="end" transform="rotate(-45 360.0,320)">Large Petrol</text>\n<rect x="312.0" y="74.79284814322733" width="31.0" height="225.20715185677267" fill="#4F81BD"><title>Large Petrol: 65585.00</title></rect>\n<rect x="344.0" y="78.53217130398093" width="31.0" height="221.46782869601907" fill="#C0504D"><title>Large Petrol: 64496.03</title></rect>\n<rect x="376.0" y="80.90485299690309" width="31.0" height="219.0951470030969" fill="#9BBB59"><title>Large Petrol: 63805.06</title></rect>\n<text x="480.0" y="320" font-family="Arial" font-size="12" text-anchor="end" transform="rotate(-45 480.0,320)">Small Electric</text>\n<rect x="432.0" y="164.48425328920433" width="31.0" height="135.51574671079567" fill="#4F81BD"><title>Small Electric: 39465.00</title></rect>\n<rect x="464.0" y="166.5078451548662" width="31.0" height="133.4921548451338" fill="#C0504D"><title>Small Electric: 38875.69</title></rect>\n<rect x="496.0" y="168.16208010250483" width="31.0" height="131.83791989749517" fill="#9BBB59"><title>Small Electric: 38393.94</title></rect>\n<text x="600.0" y="320" font-family="Arial" font-size="12" text-anchor="end" transform="rotate(-45 600.0,320)">Medium Electric</text>\n<rect x="552.0" y="135.7775095288534" width="31.0" height="164.2224904711466" fill="#4F81BD"><title>Medium Electric: 47825.00</title></rect>\n<rect x="584.0" y="142.27278444353198" width="31.0" height="157.72721555646802" fill="#C0504D"><title>Medium Electric: 45933.44</title></rect>\n<rect x="616.0" y="140.23442242245775" width="31.0" height="159.76557757754225" fill="#9BBB59"><title>Medium Electric: 46527.05</title></rect>\n<text x="720.0" y="320" font-family="Arial" font-size="12" text-anchor="end" transform="rotate(-45 720.0,320)">Large Electric</text>\n<rect x="672.0" y="63.63636363636368" width="31.0" height="236.36363636363632" fill="#4F81BD"><title>Large Electric: 68834.00</title></rect>\n<rect x="704.0" y="79.08173696944655" width="31.0" height="220.91826303055345" fill="#C0504D"><title>Large Electric: 64335.99</title></rect>\n<rect x="736.0" y="70.05114967124842" width="31.0" height="229.94885032875158" fill="#9BBB59"><title>Large Electric: 66965.88</title></rect>\n<rect x="60" y="360" width="15" height="15" fill="#4F81BD"/>\n<text x="80" y="372" font-family="Arial" font-size="12">Original</text>\n<rect x="210" y="360" width="15" height="15" fill="#C0504D"/>\n<text x="230" y="372" font-family="Arial" font-size="12">Proposal 1</text>\n<rect x="360" y="360" width="15" height="15" fill="#9BBB59"/>\n<text x="380" y="372" font-family="Arial" font-size="12">Proposal 2</text>\n</svg>