<svg width="800" height="400" xmlns="http://www.w3.org/2000/svg">\n<rect width="100%" height="100%" fill="white"/>\n<text x="400.0" y="25" font-family="Arial" font-size="16" font-weight="bold" text-anchor="middle">Cost of Ownership PV under Two Tax Regimes</text>\n<text x="15" y="200.0" font-family="Arial" font-size="12" transform="rotate(-90 15,200.0)" text-anchor="middle">Cost of Ownership ($)</text>\n<line x1="60" y1="40" x2="60" y2="300" stroke="black" stroke-width="1"/>\n<line x1="60" y1="300.0" x2="780" y2="300.0" stroke="black" stroke-width="1"/>\n<text x="120.0" y="320" font-family="Arial" font-size="12" text-anchor="end" transform="rotate(-45 120.0,320)">Small Petrol</text>\n<rect x="72.0" y="192.28221602799073" width="47.0" height="107.71778397200927" fill="#4F81BD"><title>Small Petrol: 36259.55</title></rect>\n<rect x="120.0" y="190.66469337484148" width="47.0" height="109.33530662515852" fill="#C0504D"><title>Small Petrol: 36804.03</title></rect>\n<text x="240.0" y="320" font-family="Arial" font-size="12" text-anchor="end" transform="rotate(-45 240.0,320)">Medium Petrol</text>\n<rect x="192.0" y="162.24522345040086" width="47.0" height="137.75477654959914" fill="#4F81BD"><title>Medium Petrol: 46370.49</title></rect>\n<rect x="240.0" y="161.46394927436444" width="47.0" height="138.53605072563556" fill="#C0504D"><title>Medium Petrol: 46633.48</title></rect>\n<text x="360.0" y="320" font-family="Arial" font-size="12" text-anchor="end" transform="rotate(-45 360.0,320)">Large Petrol</text>\n<rect x="312.0" y="73.48467875825753" width="47.0" height="226.51532124174247" fill="#4F81BD"><title>Large Petrol: 76248.72</title></rect>\n<rect x="360.0" y="70.24963345195894" width="47.0" height="229.75036654804106" fill="#C0504D"><title>Large Petrol: 77337.69</title></rect>\n<text x="480.0" y="320" font-family="Arial" font-size="12" text-anchor="end" transform="rotate(-45 480.0,320)">Small Electric</text>\n<rect x="432.0" y="168.9484514682651" width="47.0" height="131.0515485317349" fill="#4F81BD"><title>Small Electric: 44114.07</title></rect>\n<rect x="480.0" y="167.197757268956" width="47.0" height="132.802242731044" fill="#C0504D"><title>Small Electric: 44703.38</title></rect>\n<text x="600.0" y="320" font-family="Arial" font-size="12" text-anchor="end" transform="rotate(-45 600.0,320)">Medium Electric</text>\n<rect x="552.0" y="142.41634011210505" width="47.0" height="157.58365988789495" fill="#4F81BD"><title>Medium Electric: 53045.21</title></rect>\n<rect x="600.0" y="136.7970053494965" width="47.0" height="163.2029946505035" fill="#C0504D"><title>Medium Electric: 54936.77</title></rect>\n<text x="720.0" y="320" font-family="Arial" font-size="12" text-anchor="end" transform="rotate(-45 720.0,320)">Large Electric</text>\n<rect x="672.0" y="76.9988039383004" width="47.0" height="223.0011960616996" fill="#4F81BD"><title>Large Electric: 75065.81</title></rect>\n<rect x="720.0" y="63.63636363636368" width="47.0" height="236.36363636363632" fill="#C0504D"><title>Large Electric: 79563.82</title></rect>\n<rect x="60" y="360" width="15" height="15" fill="#4F81BD"/>\n<text x="80" y="372" font-family="Arial" font-size="12">Current Tax (CO2)</text>\n<rect x="210" y="360" width="15" height="15" fill="#C0504D"/>\n<text x="230" y="372" font-family="Arial" font-size="12">New Tax (Weight)</text>\n</svg>