<svg width="800" height="400" xmlns="http://www.w3.org/2000/svg">\n<rect width="100%" height="100%" fill="white"/>\n<text x="400.0" y="25" font-family="Arial" font-size="16" font-weight="bold" text-anchor="middle">Profit Margins under Each Scenario</text>\n<text x="15" y="200.0" font-family="Arial" font-size="12" transform="rotate(-90 15,200.0)" text-anchor="middle">Profit Margin (%)</text>\n<line x1="60" y1="40" x2="60" y2="300" stroke="black" stroke-width="1"/>\n<line x1="60" y1="300.0" x2="780" y2="300.0" stroke="black" stroke-width="1"/>\n<text x="120.0" y="320" font-family="Arial" font-size="12" text-anchor="end" transform="rotate(-45 120.0,320)">Small Petrol</text>\n<rect x="72.0" y="234.34343434343435" width="31.0" height="65.65656565656565" fill="#4F81BD"><title>Small Petrol: 5.00</title></rect>\n<rect x="104.0" y="258.6837977733671" width="31.0" height="41.316202226632925" fill="#C0504D"><title>Small Petrol: 3.15</title></rect>\n<rect x="136.0" y="269.1437109159494" width="31.0" height="30.856289084050616" fill="#9BBB59"><title>Small Petrol: 2.35</title></rect>\n<text x="240.0" y="320" font-family="Arial" font-size="12" text-anchor="end" transform="rotate(-45 240.0,320)">Medium Petrol</text>\n<rect x="192.0" y="208.08080808080808" width="31.0" height="91.91919191919192" fill="#4F81BD"><title>Medium Petrol: 7.00</title></rect>\n<rect x="224.0" y="216.85511348213038" width="31.0" height="83.14488651786962" fill="#C0504D"><title>Medium Petrol: 6.33</title></rect>\n<rect x="256.0" y="242.14844725179637" width="31.0" height="57.85155274820363" fill="#9BBB59"><title>Medium Petrol: 4.41</title></rect>\n<text x="360.0" y="320" font-family="Arial" font-size="12" text-anchor="end" transform="rotate(-45 360.0,320)">Large Petrol</text>\n<rect x="312.0" y="155.55555555555554" width="31.0" height="144.44444444444446" fill="#4F81BD"><title>Large Petrol: 11.00</title></rect>\n<rect x="344.0" y="175.28798306649526" width="31.0" height="124.71201693350474" fill="#C0504D"><title>Large Petrol: 9.50</title></rect>\n<rect x="376.0" y="188.15791992349062" width="31.0" height="111.84208007650938" fill="#9BBB59"><title>Large Petrol: 8.52</title></rect>\n<text x="480.0" y="320" font-family="Arial" font-size="12" text-anchor="end" transform="rotate(-45 480.0,320)">Small Electric</text>\n<rect x="432.0" y="155.55555555555554" width="31.0" height="144.44444444444446" fill="#4F81BD"><title>Small Electric: 11.00</title></rect>\n<rect x="464.0" y="173.2715422644689" width="31.0" height="126.7284577355311" fill="#C0504D"><title>Small Electric: 9.65</title></rect>\n<rect x="496.0" y="188.1579199234905" width="31.0" height="111.84208007650949" fill="#9BBB59"><title>Small Electric: 8.52</title></rect>\n<text x="600.0" y="320" font-family="Arial" font-size="12" text-anchor="end" transform="rotate(-45 600.0,320)">Medium Electric</text>\n<rect x="552.0" y="116.16161616161614" width="31.0" height="183.83838383838386" fill="#4F81BD"><title>Medium Electric: 14.00</title></rect>\n<rect x="584.0" y="162.66638713016377" width="31.0" height="137.33361286983623" fill="#C0504D"><title>Medium Electric: 10.46</title></rect>\n<rect x="616.0" y="147.66502442726136" width="31.0" height="152.33497557273864" fill="#9BBB59"><title>Medium Electric: 11.60</title></rect>\n<text x="720.0" y="320" font-family="Arial" font-size="12" text-anchor="end" transform="rotate(-45 720.0,320)">Large Electric</text>\n<rect x="672.0" y="63.636363636363654" width="31.0" height="236.36363636363635" fill="#4F81BD"><title>Large Electric: 18.00</title></rect>\n<rect x="704.0" y="138.91795662251255" width="31.0" height="161.08204337748745" fill="#C0504D"><title>Large Electric: 12.27</title></rect>\n<rect x="736.0" y="93.67449709895567" width="31.0" height="206.32550290104433" fill="#9BBB59"><title>Large Electric: 15.71</title></rect>\n<rect x="60" y="360" width="15" height="15" fill="#4F81BD"/>\n<text x="80" y="372" font-family="Arial" font-size="12">Original</text>\n<rect x="210" y="360" width="15" height="15" fill="#C0504D"/>\n<text x="230" y="372" font-family="Arial" font-size="12">Proposal 1</text>\n<rect x="360" y="360" width="15" height="15" fill="#9BBB59"/>\n<text x="380" y="372" font-family="Arial" font-size="12">Proposal 2</text>\n</svg>